<svg xmlns="http://www.w3.org/2000/svg" viewBox="3.2 0.2 14.6 20.6"><style>circle{fill:#0B0F1A}@media (prefers-color-scheme:dark){circle{fill:#E8ECF4}}</style><circle cx="10.5" cy="1.5" r="0.23"/><circle cx="11.5" cy="1.5" r="0.26"/><circle cx="8.5" cy="2.5" r="0.22"/><circle cx="9.5" cy="2.5" r="0.23"/><circle cx="10.5" cy="2.5" r="0.33"/><circle cx="11.5" cy="2.5" r="0.54"/><circle cx="12.5" cy="2.5" r="0.22"/><circle cx="7.5" cy="3.5" r="0.21"/><circle cx="8.5" cy="3.5" r="0.38"/><circle cx="9.5" cy="3.5" r="0.24"/><circle cx="10.5" cy="3.5" r="0.29"/><circle cx="11.5" cy="3.5" r="0.5"/><circle cx="12.5" cy="3.5" r="0.32"/><circle cx="7.5" cy="4.5" r="0.39"/><circle cx="8.5" cy="4.5" r="0.36"/><circle cx="9.5" cy="4.5" r="0.32"/><circle cx="10.5" cy="4.5" r="0.37"/><circle cx="11.5" cy="4.5" r="0.5"/><circle cx="7.5" cy="5.5" r="0.22"/><circle cx="8.5" cy="5.5" r="0.2"/><circle cx="10.5" cy="5.5" r="0.36"/><circle cx="11.5" cy="5.5" r="0.47"/><circle cx="8.5" cy="6.5" r="0.25"/><circle cx="9.5" cy="6.5" r="0.29"/><circle cx="10.5" cy="6.5" r="0.48"/><circle cx="11.5" cy="6.5" r="0.49"/><circle cx="8.5" cy="7.5" r="0.3"/><circle cx="9.5" cy="7.5" r="0.21"/><circle cx="10.5" cy="7.5" r="0.31"/><circle cx="11.5" cy="7.5" r="0.45"/><circle cx="12.5" cy="7.5" r="0.4"/><circle cx="8.5" cy="8.5" r="0.27"/><circle cx="9.5" cy="8.5" r="0.37"/><circle cx="10.5" cy="8.5" r="0.43"/><circle cx="11.5" cy="8.5" r="0.47"/><circle cx="12.5" cy="8.5" r="0.58"/><circle cx="13.5" cy="8.5" r="0.35"/><circle cx="14.5" cy="8.5" r="0.24"/><circle cx="9.5" cy="9.5" r="0.41"/><circle cx="10.5" cy="9.5" r="0.54"/><circle cx="11.5" cy="9.5" r="0.55"/><circle cx="12.5" cy="9.5" r="0.44"/><circle cx="13.5" cy="9.5" r="0.22"/><circle cx="14.5" cy="9.5" r="0.36"/><circle cx="15.5" cy="9.5" r="0.32"/><circle cx="5.5" cy="10.5" r="0.23"/><circle cx="10.5" cy="10.5" r="0.36"/><circle cx="11.5" cy="10.5" r="0.41"/><circle cx="12.5" cy="10.5" r="0.24"/><circle cx="13.5" cy="10.5" r="0.25"/><circle cx="14.5" cy="10.5" r="0.4"/><circle cx="15.5" cy="10.5" r="0.48"/><circle cx="5.5" cy="11.5" r="0.23"/><circle cx="9.5" cy="11.5" r="0.24"/><circle cx="10.5" cy="11.5" r="0.35"/><circle cx="11.5" cy="11.5" r="0.26"/><circle cx="12.5" cy="11.5" r="0.25"/><circle cx="13.5" cy="11.5" r="0.29"/><circle cx="14.5" cy="11.5" r="0.41"/><circle cx="15.5" cy="11.5" r="0.48"/><circle cx="16.5" cy="11.5" r="0.31"/><circle cx="4.5" cy="12.5" r="0.24"/><circle cx="5.5" cy="12.5" r="0.29"/><circle cx="9.5" cy="12.5" r="0.27"/><circle cx="10.5" cy="12.5" r="0.31"/><circle cx="11.5" cy="12.5" r="0.34"/><circle cx="12.5" cy="12.5" r="0.37"/><circle cx="13.5" cy="12.5" r="0.3"/><circle cx="14.5" cy="12.5" r="0.42"/><circle cx="15.5" cy="12.5" r="0.49"/><circle cx="16.5" cy="12.5" r="0.4"/><circle cx="4.5" cy="13.5" r="0.34"/><circle cx="5.5" cy="13.5" r="0.39"/><circle cx="6.5" cy="13.5" r="0.23"/><circle cx="8.5" cy="13.5" r="0.23"/><circle cx="9.5" cy="13.5" r="0.27"/><circle cx="10.5" cy="13.5" r="0.4"/><circle cx="11.5" cy="13.5" r="0.45"/><circle cx="12.5" cy="13.5" r="0.38"/><circle cx="13.5" cy="13.5" r="0.35"/><circle cx="14.5" cy="13.5" r="0.45"/><circle cx="15.5" cy="13.5" r="0.54"/><circle cx="16.5" cy="13.5" r="0.27"/><circle cx="4.5" cy="14.5" r="0.35"/><circle cx="5.5" cy="14.5" r="0.44"/><circle cx="6.5" cy="14.5" r="0.23"/><circle cx="7.5" cy="14.5" r="0.24"/><circle cx="8.5" cy="14.5" r="0.24"/><circle cx="9.5" cy="14.5" r="0.39"/><circle cx="10.5" cy="14.5" r="0.44"/><circle cx="11.5" cy="14.5" r="0.44"/><circle cx="12.5" cy="14.5" r="0.37"/><circle cx="13.5" cy="14.5" r="0.4"/><circle cx="14.5" cy="14.5" r="0.49"/><circle cx="15.5" cy="14.5" r="0.43"/><circle cx="5.5" cy="15.5" r="0.22"/><circle cx="6.5" cy="15.5" r="0.24"/><circle cx="7.5" cy="15.5" r="0.3"/><circle cx="8.5" cy="15.5" r="0.37"/><circle cx="9.5" cy="15.5" r="0.41"/><circle cx="10.5" cy="15.5" r="0.48"/><circle cx="11.5" cy="15.5" r="0.44"/><circle cx="12.5" cy="15.5" r="0.36"/><circle cx="13.5" cy="15.5" r="0.44"/><circle cx="14.5" cy="15.5" r="0.51"/><circle cx="15.5" cy="15.5" r="0.23"/><circle cx="6.5" cy="16.5" r="0.45"/><circle cx="7.5" cy="16.5" r="0.47"/><circle cx="8.5" cy="16.5" r="0.46"/><circle cx="9.5" cy="16.5" r="0.5"/><circle cx="10.5" cy="16.5" r="0.45"/><circle cx="11.5" cy="16.5" r="0.41"/><circle cx="12.5" cy="16.5" r="0.39"/><circle cx="13.5" cy="16.5" r="0.49"/><circle cx="14.5" cy="16.5" r="0.4"/><circle cx="6.5" cy="17.5" r="0.23"/><circle cx="7.5" cy="17.5" r="0.27"/><circle cx="8.5" cy="17.5" r="0.38"/><circle cx="9.5" cy="17.5" r="0.42"/><circle cx="10.5" cy="17.5" r="0.39"/><circle cx="11.5" cy="17.5" r="0.41"/><circle cx="12.5" cy="17.5" r="0.46"/><circle cx="13.5" cy="17.5" r="0.48"/><circle cx="6.5" cy="18.5" r="0.25"/><circle cx="7.5" cy="18.5" r="0.31"/><circle cx="8.5" cy="18.5" r="0.32"/><circle cx="9.5" cy="18.5" r="0.32"/><circle cx="10.5" cy="18.5" r="0.31"/><circle cx="11.5" cy="18.5" r="0.34"/><circle cx="12.5" cy="18.5" r="0.36"/><circle cx="13.5" cy="18.5" r="0.41"/><circle cx="14.5" cy="18.5" r="0.3"/><circle cx="6.5" cy="19.5" r="0.28"/><circle cx="7.5" cy="19.5" r="0.25"/><circle cx="8.5" cy="19.5" r="0.23"/><circle cx="9.5" cy="19.5" r="0.21"/><circle cx="11.5" cy="19.5" r="0.2"/><circle cx="13.5" cy="19.5" r="0.25"/><circle cx="14.5" cy="19.5" r="0.32"/></svg>